<mxfile host="app.diagrams.net" agent="Mozilla/5.0 (Windows NT 10.0; Win64; x64) AppleWebKit/537.36 (KHTML, like Gecko) Chrome/135.0.0.0 Safari/537.36" version="26.3.0">
  <diagram name="Page-1" id="ssVO22p_gyrCA82duLkL">
    <mxGraphModel dx="1426" dy="743" grid="1" gridSize="10" guides="1" tooltips="1" connect="1" arrows="1" fold="1" page="1" pageScale="1" pageWidth="850" pageHeight="1100" math="0" shadow="0">
      <root>
        <mxCell id="0" />
        <mxCell id="1" parent="0" />
        <mxCell id="uTlLhdyHh0Ulww6TSe8G-24" value="" style="rounded=0;whiteSpace=wrap;html=1;fillColor=#FFFF00;" vertex="1" parent="1">
          <mxGeometry x="115" y="760" width="620" height="270" as="geometry" />
        </mxCell>
        <mxCell id="DDUqw1JzKu1cepEBkd-f-2" value="" style="shape=ext;double=1;rounded=1;whiteSpace=wrap;html=1;fontFamily=Roboto;fontSource=https%3A%2F%2Ffonts.googleapis.com%2Fcss%3Ffamily%3DRoboto;fillColor=#FFFF66;strokeColor=#252500;" parent="1" vertex="1">
          <mxGeometry x="90" y="170" width="600" height="90" as="geometry" />
        </mxCell>
        <mxCell id="DDUqw1JzKu1cepEBkd-f-3" value="" style="shape=ext;double=1;rounded=1;whiteSpace=wrap;html=1;fontFamily=Roboto;fontSource=https%3A%2F%2Ffonts.googleapis.com%2Fcss%3Ffamily%3DRoboto;fillColor=#FAD9D5;strokeColor=#ae4132;" parent="1" vertex="1">
          <mxGeometry x="90" y="60" width="600" height="90" as="geometry" />
        </mxCell>
        <mxCell id="DDUqw1JzKu1cepEBkd-f-4" value="" style="shape=ext;double=1;whiteSpace=wrap;html=1;fontFamily=Roboto;fontSource=https%3A%2F%2Ffonts.googleapis.com%2Fcss%3Ffamily%3DRoboto;fillColor=#b1ddf0;strokeColor=#10739e;" parent="1" vertex="1">
          <mxGeometry x="425" y="300" width="245" height="180" as="geometry" />
        </mxCell>
        <mxCell id="DDUqw1JzKu1cepEBkd-f-8" value="Web APIs" style="text;html=1;align=center;verticalAlign=middle;whiteSpace=wrap;rounded=0;fontFamily=Roboto;fontSource=https%3A%2F%2Ffonts.googleapis.com%2Fcss%3Ffamily%3DRoboto;fontSize=15;fontStyle=1" parent="1" vertex="1">
          <mxGeometry x="505" y="310" width="85" height="30" as="geometry" />
        </mxCell>
        <mxCell id="DDUqw1JzKu1cepEBkd-f-10" value="setTimeout..." style="rounded=1;whiteSpace=wrap;html=1;arcSize=50;strokeColor=none;strokeWidth=1;fillColor=#004C99;fontColor=#FFFFFF;whiteSpace=wrap;align=center;verticalAlign=middle;spacingLeft=0;fontStyle=0;fontSize=12;spacing=10;fontFamily=Roboto;fontSource=https%3A%2F%2Ffonts.googleapis.com%2Fcss%3Ffamily%3DRoboto;" parent="1" vertex="1">
          <mxGeometry x="435" y="372.5" width="105" height="20" as="geometry" />
        </mxCell>
        <mxCell id="DDUqw1JzKu1cepEBkd-f-12" value="setInterval..." style="rounded=1;whiteSpace=wrap;html=1;arcSize=50;strokeColor=none;strokeWidth=1;fillColor=#004C99;fontColor=#FFFFFF;whiteSpace=wrap;align=center;verticalAlign=middle;spacingLeft=0;fontStyle=0;fontSize=12;spacing=10;fontFamily=Roboto;fontSource=https%3A%2F%2Ffonts.googleapis.com%2Fcss%3Ffamily%3DRoboto;" parent="1" vertex="1">
          <mxGeometry x="550" y="372.5" width="105" height="20" as="geometry" />
        </mxCell>
        <mxCell id="DDUqw1JzKu1cepEBkd-f-13" style="edgeStyle=orthogonalEdgeStyle;rounded=0;orthogonalLoop=1;jettySize=auto;html=1;exitX=0.5;exitY=1;exitDx=0;exitDy=0;fontFamily=Roboto;fontSource=https%3A%2F%2Ffonts.googleapis.com%2Fcss%3Ffamily%3DRoboto;" parent="1" source="DDUqw1JzKu1cepEBkd-f-12" target="DDUqw1JzKu1cepEBkd-f-12" edge="1">
          <mxGeometry relative="1" as="geometry" />
        </mxCell>
        <mxCell id="DDUqw1JzKu1cepEBkd-f-14" value="Dom events" style="rounded=1;whiteSpace=wrap;html=1;arcSize=50;strokeColor=#3A5431;strokeWidth=1;fillColor=#004C99;whiteSpace=wrap;align=center;verticalAlign=middle;spacingLeft=0;fontStyle=0;fontSize=12;spacing=10;fontFamily=Roboto;fontSource=https%3A%2F%2Ffonts.googleapis.com%2Fcss%3Ffamily%3DRoboto;fontColor=#ffffff;" parent="1" vertex="1">
          <mxGeometry x="435" y="340" width="85" height="20" as="geometry" />
        </mxCell>
        <mxCell id="DDUqw1JzKu1cepEBkd-f-15" value="URL" style="rounded=1;whiteSpace=wrap;html=1;arcSize=50;strokeColor=none;strokeWidth=1;fillColor=#004C99;fontColor=#FFFFFF;whiteSpace=wrap;align=center;verticalAlign=middle;spacingLeft=0;fontStyle=0;fontSize=12;spacing=10;fontFamily=Roboto;fontSource=https%3A%2F%2Ffonts.googleapis.com%2Fcss%3Ffamily%3DRoboto;" parent="1" vertex="1">
          <mxGeometry x="525" y="340" width="60" height="20" as="geometry" />
        </mxCell>
        <mxCell id="DDUqw1JzKu1cepEBkd-f-16" value="Geolocation" style="rounded=1;whiteSpace=wrap;html=1;arcSize=50;strokeColor=none;strokeWidth=1;fillColor=#004C99;fontColor=#FFFFFF;whiteSpace=wrap;align=center;verticalAlign=middle;spacingLeft=0;fontStyle=0;fontSize=12;spacing=10;fontFamily=Roboto;fontSource=https%3A%2F%2Ffonts.googleapis.com%2Fcss%3Ffamily%3DRoboto;" parent="1" vertex="1">
          <mxGeometry x="435" y="405" width="105" height="20" as="geometry" />
        </mxCell>
        <mxCell id="DDUqw1JzKu1cepEBkd-f-17" value="WebSockets" style="rounded=1;whiteSpace=wrap;html=1;arcSize=50;strokeColor=none;strokeWidth=1;fillColor=#004C99;fontColor=#FFFFFF;whiteSpace=wrap;align=center;verticalAlign=middle;spacingLeft=0;fontStyle=0;fontSize=12;spacing=10;fontFamily=Roboto;fontSource=https%3A%2F%2Ffonts.googleapis.com%2Fcss%3Ffamily%3DRoboto;" parent="1" vertex="1">
          <mxGeometry x="550" y="405" width="105" height="20" as="geometry" />
        </mxCell>
        <mxCell id="DDUqw1JzKu1cepEBkd-f-18" value="LocalStorage" style="rounded=1;whiteSpace=wrap;html=1;arcSize=50;strokeColor=none;strokeWidth=1;fillColor=#004C99;fontColor=#FFFFFF;whiteSpace=wrap;align=center;verticalAlign=middle;spacingLeft=0;fontStyle=0;fontSize=12;spacing=10;fontFamily=Roboto;fontSource=https%3A%2F%2Ffonts.googleapis.com%2Fcss%3Ffamily%3DRoboto;" parent="1" vertex="1">
          <mxGeometry x="435" y="440" width="105" height="20" as="geometry" />
        </mxCell>
        <mxCell id="DDUqw1JzKu1cepEBkd-f-19" value="SessionStorage" style="rounded=1;whiteSpace=wrap;html=1;arcSize=50;strokeColor=none;strokeWidth=1;fillColor=#004C99;fontColor=#FFFFFF;whiteSpace=wrap;align=center;verticalAlign=middle;spacingLeft=0;fontStyle=0;fontSize=12;spacing=10;fontFamily=Roboto;fontSource=https%3A%2F%2Ffonts.googleapis.com%2Fcss%3Ffamily%3DRoboto;" parent="1" vertex="1">
          <mxGeometry x="550" y="440" width="105" height="20" as="geometry" />
        </mxCell>
        <mxCell id="DDUqw1JzKu1cepEBkd-f-33" style="edgeStyle=orthogonalEdgeStyle;rounded=0;orthogonalLoop=1;jettySize=auto;html=1;dashed=1;fontFamily=Roboto;fontSource=https%3A%2F%2Ffonts.googleapis.com%2Fcss%3Ffamily%3DRoboto;entryX=1;entryY=0.5;entryDx=0;entryDy=0;shadow=1;shadowColor=#66B2FF;" parent="1" target="DDUqw1JzKu1cepEBkd-f-2" edge="1">
          <mxGeometry relative="1" as="geometry">
            <mxPoint x="660" y="345" as="sourcePoint" />
            <mxPoint x="700" y="210" as="targetPoint" />
            <Array as="points">
              <mxPoint x="730" y="345" />
              <mxPoint x="730" y="215" />
            </Array>
          </mxGeometry>
        </mxCell>
        <mxCell id="DDUqw1JzKu1cepEBkd-f-20" value="fetch()" style="rounded=1;whiteSpace=wrap;html=1;arcSize=50;strokeColor=none;strokeWidth=1;fillColor=#004C99;fontColor=#FFFFFF;whiteSpace=wrap;align=center;verticalAlign=middle;spacingLeft=0;fontStyle=0;fontSize=12;spacing=10;fontFamily=Roboto;fontSource=https%3A%2F%2Ffonts.googleapis.com%2Fcss%3Ffamily%3DRoboto;" parent="1" vertex="1">
          <mxGeometry x="590" y="340" width="60" height="20" as="geometry" />
        </mxCell>
        <mxCell id="DDUqw1JzKu1cepEBkd-f-21" value="Microtask Queue" style="text;html=1;align=center;verticalAlign=middle;whiteSpace=wrap;rounded=0;fontFamily=Roboto;fontSource=https%3A%2F%2Ffonts.googleapis.com%2Fcss%3Ffamily%3DRoboto;fontSize=15;fontStyle=1" parent="1" vertex="1">
          <mxGeometry x="100" y="170" width="130" height="30" as="geometry" />
        </mxCell>
        <mxCell id="DDUqw1JzKu1cepEBkd-f-22" value="(Macro) Task queue" style="text;html=1;align=center;verticalAlign=middle;whiteSpace=wrap;rounded=0;fontFamily=Roboto;fontSource=https%3A%2F%2Ffonts.googleapis.com%2Fcss%3Ffamily%3DRoboto;fontSize=15;fontStyle=1" parent="1" vertex="1">
          <mxGeometry x="90" y="60" width="160" height="30" as="geometry" />
        </mxCell>
        <mxCell id="DDUqw1JzKu1cepEBkd-f-29" value="Promise.res.." style="html=1;shadow=0;dashed=0;shape=mxgraph.bootstrap.rrect;rSize=5;strokeColor=none;strokeWidth=1;fillColor=#838334;fontColor=#FFFFFF;whiteSpace=wrap;align=center;verticalAlign=middle;spacingLeft=0;fontStyle=0;fontSize=16;spacing=5;fontFamily=Roboto;fontSource=https%3A%2F%2Ffonts.googleapis.com%2Fcss%3Ffamily%3DRoboto;" parent="1" vertex="1">
          <mxGeometry x="110" y="210" width="120" height="30" as="geometry" />
        </mxCell>
        <mxCell id="DDUqw1JzKu1cepEBkd-f-30" value="queMicrotask" style="html=1;shadow=0;dashed=0;shape=mxgraph.bootstrap.rrect;rSize=5;strokeColor=none;strokeWidth=1;fillColor=#838334;fontColor=#FFFFFF;whiteSpace=wrap;align=center;verticalAlign=middle;spacingLeft=0;fontStyle=0;fontSize=16;spacing=5;fontFamily=Roboto;fontSource=https%3A%2F%2Ffonts.googleapis.com%2Fcss%3Ffamily%3DRoboto;" parent="1" vertex="1">
          <mxGeometry x="260" y="210" width="120" height="30" as="geometry" />
        </mxCell>
        <mxCell id="DDUqw1JzKu1cepEBkd-f-31" value="callback...&amp;nbsp;" style="html=1;shadow=0;dashed=0;shape=mxgraph.bootstrap.rrect;rSize=5;strokeColor=none;strokeWidth=1;fillColor=#838334;fontColor=#FFFFFF;whiteSpace=wrap;align=center;verticalAlign=middle;spacingLeft=0;fontStyle=0;fontSize=16;spacing=5;fontFamily=Roboto;fontSource=https%3A%2F%2Ffonts.googleapis.com%2Fcss%3Ffamily%3DRoboto;" parent="1" vertex="1">
          <mxGeometry x="550" y="210" width="120" height="30" as="geometry" />
        </mxCell>
        <mxCell id="DDUqw1JzKu1cepEBkd-f-32" value="await..." style="html=1;shadow=0;dashed=0;shape=mxgraph.bootstrap.rrect;rSize=5;strokeColor=none;strokeWidth=1;fillColor=#838334;fontColor=#FFFFFF;whiteSpace=wrap;align=center;verticalAlign=middle;spacingLeft=0;fontStyle=0;fontSize=16;spacing=5;fontFamily=Roboto;fontSource=https%3A%2F%2Ffonts.googleapis.com%2Fcss%3Ffamily%3DRoboto;" parent="1" vertex="1">
          <mxGeometry x="405" y="210" width="120" height="30" as="geometry" />
        </mxCell>
        <mxCell id="DDUqw1JzKu1cepEBkd-f-36" style="edgeStyle=orthogonalEdgeStyle;rounded=0;orthogonalLoop=1;jettySize=auto;html=1;fontFamily=Roboto;fontSource=https%3A%2F%2Ffonts.googleapis.com%2Fcss%3Ffamily%3DRoboto;entryX=1;entryY=0.5;entryDx=0;entryDy=0;shadow=1;shadowColor=#99CCFF;" parent="1" source="DDUqw1JzKu1cepEBkd-f-4" target="DDUqw1JzKu1cepEBkd-f-3" edge="1">
          <mxGeometry relative="1" as="geometry">
            <mxPoint x="720" y="110" as="targetPoint" />
            <Array as="points">
              <mxPoint x="740" y="390" />
              <mxPoint x="740" y="105" />
            </Array>
          </mxGeometry>
        </mxCell>
        <mxCell id="DDUqw1JzKu1cepEBkd-f-41" value="Callback done!" style="edgeLabel;html=1;align=center;verticalAlign=middle;resizable=0;points=[];fontSize=13;fontFamily=Roboto;fontSource=https%3A%2F%2Ffonts.googleapis.com%2Fcss%3Ffamily%3DRoboto;" parent="DDUqw1JzKu1cepEBkd-f-36" vertex="1" connectable="0">
          <mxGeometry x="0.11" y="-2" relative="1" as="geometry">
            <mxPoint y="-67" as="offset" />
          </mxGeometry>
        </mxCell>
        <mxCell id="DDUqw1JzKu1cepEBkd-f-37" value="setTimeout" style="html=1;shadow=0;dashed=0;shape=mxgraph.bootstrap.rrect;rSize=5;strokeColor=none;strokeWidth=1;fillColor=#A28E8C;fontColor=#FFFFFF;whiteSpace=wrap;align=center;verticalAlign=middle;spacingLeft=0;fontStyle=0;fontSize=16;spacing=5;fontFamily=Roboto;fontSource=https%3A%2F%2Ffonts.googleapis.com%2Fcss%3Ffamily%3DRoboto;" parent="1" vertex="1">
          <mxGeometry x="110" y="100" width="110" height="30" as="geometry" />
        </mxCell>
        <mxCell id="DDUqw1JzKu1cepEBkd-f-38" value="setInterval" style="html=1;shadow=0;dashed=0;shape=mxgraph.bootstrap.rrect;rSize=5;strokeColor=none;strokeWidth=1;fillColor=#A28E8C;fontColor=#FFFFFF;whiteSpace=wrap;align=center;verticalAlign=middle;spacingLeft=0;fontStyle=0;fontSize=16;spacing=5;fontFamily=Roboto;fontSource=https%3A%2F%2Ffonts.googleapis.com%2Fcss%3Ffamily%3DRoboto;" parent="1" vertex="1">
          <mxGeometry x="265" y="100" width="110" height="30" as="geometry" />
        </mxCell>
        <mxCell id="DDUqw1JzKu1cepEBkd-f-39" value="localStorage" style="html=1;shadow=0;dashed=0;shape=mxgraph.bootstrap.rrect;rSize=5;strokeColor=none;strokeWidth=1;fillColor=#A28E8C;fontColor=#FFFFFF;whiteSpace=wrap;align=center;verticalAlign=middle;spacingLeft=0;fontStyle=0;fontSize=16;spacing=5;fontFamily=Roboto;fontSource=https%3A%2F%2Ffonts.googleapis.com%2Fcss%3Ffamily%3DRoboto;" parent="1" vertex="1">
          <mxGeometry x="410" y="100" width="110" height="30" as="geometry" />
        </mxCell>
        <mxCell id="DDUqw1JzKu1cepEBkd-f-40" value="setTimeout" style="html=1;shadow=0;dashed=0;shape=mxgraph.bootstrap.rrect;rSize=5;strokeColor=none;strokeWidth=1;fillColor=#A28E8C;fontColor=#FFFFFF;whiteSpace=wrap;align=center;verticalAlign=middle;spacingLeft=0;fontStyle=0;fontSize=16;spacing=5;fontFamily=Roboto;fontSource=https%3A%2F%2Ffonts.googleapis.com%2Fcss%3Ffamily%3DRoboto;" parent="1" vertex="1">
          <mxGeometry x="550" y="100" width="110" height="30" as="geometry" />
        </mxCell>
        <mxCell id="DDUqw1JzKu1cepEBkd-f-43" value="" style="group" parent="1" vertex="1" connectable="0">
          <mxGeometry x="90" y="280" width="160" height="270" as="geometry" />
        </mxCell>
        <mxCell id="DDUqw1JzKu1cepEBkd-f-1" value="" style="shape=ext;double=1;rounded=1;whiteSpace=wrap;html=1;fontFamily=Roboto;fontSource=https%3A%2F%2Ffonts.googleapis.com%2Fcss%3Ffamily%3DRoboto;fillColor=#99FF99;strokeColor=#004400;" parent="DDUqw1JzKu1cepEBkd-f-43" vertex="1">
          <mxGeometry width="160" height="270" as="geometry" />
        </mxCell>
        <mxCell id="DDUqw1JzKu1cepEBkd-f-23" value="Call Stack" style="text;html=1;align=center;verticalAlign=middle;whiteSpace=wrap;rounded=0;fontFamily=Roboto;fontSource=https%3A%2F%2Ffonts.googleapis.com%2Fcss%3Ffamily%3DRoboto;fontSize=15;fontStyle=1" parent="DDUqw1JzKu1cepEBkd-f-43" vertex="1">
          <mxGeometry x="15" y="10" width="130" height="30" as="geometry" />
        </mxCell>
        <mxCell id="DDUqw1JzKu1cepEBkd-f-24" value="" style="html=1;shadow=0;dashed=0;shape=mxgraph.bootstrap.rrect;rSize=5;strokeColor=none;strokeWidth=1;fillColor=#004400;fontColor=#FFFFFF;whiteSpace=wrap;align=center;verticalAlign=middle;spacingLeft=0;fontStyle=0;fontSize=16;spacing=5;fontFamily=Roboto;fontSource=https%3A%2F%2Ffonts.googleapis.com%2Fcss%3Ffamily%3DRoboto;" parent="DDUqw1JzKu1cepEBkd-f-43" vertex="1">
          <mxGeometry x="30" y="200" width="100" height="20" as="geometry" />
        </mxCell>
        <mxCell id="DDUqw1JzKu1cepEBkd-f-25" value="" style="html=1;shadow=0;dashed=0;shape=mxgraph.bootstrap.rrect;rSize=5;strokeColor=none;strokeWidth=1;fillColor=#004400;fontColor=#FFFFFF;whiteSpace=wrap;align=center;verticalAlign=middle;spacingLeft=0;fontStyle=0;fontSize=16;spacing=5;fontFamily=Roboto;fontSource=https%3A%2F%2Ffonts.googleapis.com%2Fcss%3Ffamily%3DRoboto;" parent="DDUqw1JzKu1cepEBkd-f-43" vertex="1">
          <mxGeometry x="30" y="170" width="100" height="20" as="geometry" />
        </mxCell>
        <mxCell id="DDUqw1JzKu1cepEBkd-f-26" value="" style="html=1;shadow=0;dashed=0;shape=mxgraph.bootstrap.rrect;rSize=5;strokeColor=none;strokeWidth=1;fillColor=#004400;fontColor=#FFFFFF;whiteSpace=wrap;align=center;verticalAlign=middle;spacingLeft=0;fontStyle=0;fontSize=16;spacing=5;fontFamily=Roboto;fontSource=https%3A%2F%2Ffonts.googleapis.com%2Fcss%3Ffamily%3DRoboto;" parent="DDUqw1JzKu1cepEBkd-f-43" vertex="1">
          <mxGeometry x="30" y="140" width="100" height="20" as="geometry" />
        </mxCell>
        <mxCell id="DDUqw1JzKu1cepEBkd-f-27" value="" style="html=1;shadow=0;dashed=0;shape=mxgraph.bootstrap.rrect;rSize=5;strokeColor=none;strokeWidth=1;fillColor=#004400;fontColor=#FFFFFF;whiteSpace=wrap;align=center;verticalAlign=middle;spacingLeft=0;fontStyle=0;fontSize=16;spacing=5;fontFamily=Roboto;fontSource=https%3A%2F%2Ffonts.googleapis.com%2Fcss%3Ffamily%3DRoboto;" parent="DDUqw1JzKu1cepEBkd-f-43" vertex="1">
          <mxGeometry x="30" y="110" width="100" height="20" as="geometry" />
        </mxCell>
        <mxCell id="DDUqw1JzKu1cepEBkd-f-28" value="&lt;font style=&quot;font-weight: normal; font-size: 13px;&quot;&gt;FIFO&lt;/font&gt;" style="text;html=1;align=center;verticalAlign=middle;whiteSpace=wrap;rounded=0;fontFamily=Roboto;fontSource=https%3A%2F%2Ffonts.googleapis.com%2Fcss%3Ffamily%3DRoboto;fontSize=15;fontStyle=1" parent="DDUqw1JzKu1cepEBkd-f-43" vertex="1">
          <mxGeometry x="15" y="30" width="130" height="30" as="geometry" />
        </mxCell>
        <mxCell id="DDUqw1JzKu1cepEBkd-f-44" value="" style="group" parent="1" vertex="1" connectable="0">
          <mxGeometry x="280" y="360" width="108.75999999999999" height="100" as="geometry" />
        </mxCell>
        <mxCell id="DDUqw1JzKu1cepEBkd-f-6" value="" style="shape=image;verticalLabelPosition=bottom;labelBackgroundColor=light-dark(#FFFFFF,#66FFFF);verticalAlign=top;aspect=fixed;imageAspect=0;editableCssRules=.*;image=data:image/svg+xml,PHN2ZyB4bWxuczp4bGluaz0iaHR0cDovL3d3dy53My5vcmcvMTk5OS94bGluayIgeG1sbnM9Imh0dHA6Ly93d3cudzMub3JnLzIwMDAvc3ZnIiB4bWw6c3BhY2U9InByZXNlcnZlIiB2aWV3Qm94PSI5Ljk1MTMzMjA5MjI4NTE1NiAxOS42MDAwMDIyODg4MTgzNiAyMzYuMTQ5ODQxMzA4NTkzNzUgMjE2Ljc5OTk4Nzc5Mjk2ODc1IiB5PSIwcHgiIHg9IjBweCIgdmVyc2lvbj0iMS4xIiB3aWR0aD0iMjM2LjE0OTg0MTMwODU5Mzc1IiBoZWlnaHQ9IjIxNi43OTk5ODc3OTI5Njg3NSI+JiN4YTs8Zz48Zz48cGF0aCBkPSJNMTI4LDIyNy44Yy00NS43LDAtODQuNC0zMC45LTk2LjEtNzIuOWgtOWMxLjMsNS4yLDMuMSwxMC4zLDUuMiwxNS4zYzUuNSwxMi45LDEzLjMsMjQuNSwyMy4yLDM0LjVjOS45LDEwLDIxLjYsMTcuOCwzNC41LDIzLjJjMTMuNCw1LjcsMjcuNiw4LjUsNDIuMiw4LjVjMTQuNiwwLDI4LjktMi45LDQyLjItOC41YzEyLjktNS41LDI0LjUtMTMuMywzNC41LTIzLjJjMTAtMTAsMTcuOC0yMS42LDIzLjItMzQuNWMxLjMtMy4yLDIuNS02LjQsMy41LTkuNmMwLjktMi44LTEuMi01LjYtNC4xLTUuNmwwLDBjLTEuOSwwLTMuNiwxLjItNC4xLDNDMjEwLjUsMTk4LjQsMTcyLjYsMjI3LjgsMTI4LDIyNy44eiIgZmlsbD0iIzAwMDAwMCIvPjxwYXRoIGQ9Ik0xMjgsMjguMmM0NS41LDAsODQsMzAuNiw5Niw3Mi4zaDljLTEuMy01LTMtOS45LTUtMTQuN2MtNS41LTEyLjktMTMuMy0yNC41LTIzLjItMzQuNWMtMTAtMTAtMjEuNi0xNy44LTM0LjUtMjMuMmMtMTMuNC01LjctMjcuNi04LjUtNDIuMy04LjVjLTE0LjYsMC0yOC45LDIuOS00Mi4yLDguNWMtMTIuOSw1LjUtMjQuNSwxMy4zLTM0LjUsMjMuMmMtMTAsMTAtMTcuOCwyMS42LTIzLjIsMzQuNWMtMS4zLDMtMi40LDUuOS0zLjMsOWMtMC45LDIuOCwxLjIsNS43LDQuMSw1LjdsMCwwYzEuOSwwLDMuNS0xLjIsNC4xLTNDNDUuOSw1Ny4zLDgzLjYsMjguMiwxMjgsMjguMnoiIGZpbGw9IiMwMDAwMDAiLz48cGF0aCBkPSJNMjI4LjksMTA3LjZsLTI5LjYtMTEuMWMtMi4yLTAuOC0zLjQtMy4zLTIuNS01LjZsMCwwYzAuOC0yLjIsMy4zLTMuNCw1LjYtMi41bDI5LjYsMTEuMWMyLjIsMC44LDMuNCwzLjMsMi41LDUuNmwwLDBDMjMzLjYsMTA3LjMsMjMxLjEsMTA4LjQsMjI4LjksMTA3LjZ6IiBmaWxsPSIjMDAwMDAwIi8+PHBhdGggZD0iTTIyOS4xLDEwNy4yTDIyOS4xLDEwNy4yYy0yLjItMC44LTMuNC0zLjMtMi41LTUuNmwxMS4xLTI5LjZjMC44LTIuMiwzLjMtMy40LDUuNi0yLjVsMCwwYzIuMiwwLjgsMy40LDMuMywyLjUsNS42bC0xMSwyOS42QzIzMy44LDEwNi45LDIzMS4zLDEwOC4xLDIyOS4xLDEwNy4yeiIgZmlsbD0iIzAwMDAwMCIvPjxwYXRoIGQ9Ik01My43LDE2Ny4ybC0yOS42LTExYy0yLjItMC44LTMuNC0zLjMtMi42LTUuNmwwLDBjMC44LTIuMiwzLjMtMy40LDUuNi0yLjZsMjkuNiwxMWMyLjIsMC44LDMuNCwzLjMsMi42LDUuNmwwLDBDNTguNCwxNjYuOSw1NS45LDE2OCw1My43LDE2Ny4yeiIgZmlsbD0iIzAwMDAwMCIvPjxwYXRoIGQ9Ik0xMi44LDE4Ni4yTDEyLjgsMTg2LjJjLTIuMi0wLjgtMy40LTMuMy0yLjYtNS42bDExLTI5LjZjMC44LTIuMiwzLjMtMy40LDUuNi0yLjZsMCwwYzIuMiwwLjgsMy40LDMuMywyLjYsNS42bC0xMSwyOS42QzE3LjYsMTg1LjksMTUuMSwxODcsMTIuOCwxODYuMnoiIGZpbGw9IiMwMDAwMDAiLz48L2c+PC9nPiYjeGE7PC9zdmc+;imageBackground=none;shadow=1;fontColor=light-dark(#000000,#000066);labelBorderColor=light-dark(default, #bb2525);imageBorder=none;backgroundOutline=0;shadowColor=light-dark(#FFFF00,#FFFFCC);fontFamily=Roboto;fontSource=https%3A%2F%2Ffonts.googleapis.com%2Fcss%3Ffamily%3DRoboto;" parent="DDUqw1JzKu1cepEBkd-f-44" vertex="1">
          <mxGeometry width="108.76" height="100" as="geometry" />
        </mxCell>
        <mxCell id="DDUqw1JzKu1cepEBkd-f-7" value="&lt;font style=&quot;font-size: 15px;&quot; face=&quot;Playwrite DK Loopet&quot; data-font-src=&quot;https://fonts.googleapis.com/css?family=Playwrite+DK+Loopet&quot;&gt;&lt;b&gt;Event Loop&lt;/b&gt;&lt;/font&gt;" style="text;html=1;align=center;verticalAlign=middle;whiteSpace=wrap;rounded=0;fontFamily=Roboto;fontSource=https%3A%2F%2Ffonts.googleapis.com%2Fcss%3Ffamily%3DRoboto;glass=0;shadow=1;fillColor=none;shadowColor=#FFFF00;" parent="DDUqw1JzKu1cepEBkd-f-44" vertex="1">
          <mxGeometry x="9.069999999999993" y="7.5" width="90.62" height="85" as="geometry" />
        </mxCell>
        <mxCell id="uTlLhdyHh0Ulww6TSe8G-21" value="" style="group" vertex="1" connectable="0" parent="1">
          <mxGeometry x="295" y="790" width="340" height="240" as="geometry" />
        </mxCell>
        <mxCell id="uTlLhdyHh0Ulww6TSe8G-22" value="" style="shape=image;verticalLabelPosition=bottom;labelBackgroundColor=light-dark(#FFFFFF,#66FFFF);verticalAlign=top;aspect=fixed;imageAspect=0;editableCssRules=.*;image=data:image/svg+xml,PHN2ZyB4bWxuczp4bGluaz0iaHR0cDovL3d3dy53My5vcmcvMTk5OS94bGluayIgeG1sbnM9Imh0dHA6Ly93d3cudzMub3JnLzIwMDAvc3ZnIiB4bWw6c3BhY2U9InByZXNlcnZlIiB2aWV3Qm94PSI5Ljk1MTMzMjA5MjI4NTE1NiAxOS42MDAwMDIyODg4MTgzNiAyMzYuMTQ5ODQxMzA4NTkzNzUgMjE2Ljc5OTk4Nzc5Mjk2ODc1IiB5PSIwcHgiIHg9IjBweCIgdmVyc2lvbj0iMS4xIiB3aWR0aD0iMjM2LjE0OTg0MTMwODU5Mzc1IiBoZWlnaHQ9IjIxNi43OTk5ODc3OTI5Njg3NSI+JiN4YTs8Zz48Zz48cGF0aCBkPSJNMTI4LDIyNy44Yy00NS43LDAtODQuNC0zMC45LTk2LjEtNzIuOWgtOWMxLjMsNS4yLDMuMSwxMC4zLDUuMiwxNS4zYzUuNSwxMi45LDEzLjMsMjQuNSwyMy4yLDM0LjVjOS45LDEwLDIxLjYsMTcuOCwzNC41LDIzLjJjMTMuNCw1LjcsMjcuNiw4LjUsNDIuMiw4LjVjMTQuNiwwLDI4LjktMi45LDQyLjItOC41YzEyLjktNS41LDI0LjUtMTMuMywzNC41LTIzLjJjMTAtMTAsMTcuOC0yMS42LDIzLjItMzQuNWMxLjMtMy4yLDIuNS02LjQsMy41LTkuNmMwLjktMi44LTEuMi01LjYtNC4xLTUuNmwwLDBjLTEuOSwwLTMuNiwxLjItNC4xLDNDMjEwLjUsMTk4LjQsMTcyLjYsMjI3LjgsMTI4LDIyNy44eiIgZmlsbD0iIzAwMDAwMCIvPjxwYXRoIGQ9Ik0xMjgsMjguMmM0NS41LDAsODQsMzAuNiw5Niw3Mi4zaDljLTEuMy01LTMtOS45LTUtMTQuN2MtNS41LTEyLjktMTMuMy0yNC41LTIzLjItMzQuNWMtMTAtMTAtMjEuNi0xNy44LTM0LjUtMjMuMmMtMTMuNC01LjctMjcuNi04LjUtNDIuMy04LjVjLTE0LjYsMC0yOC45LDIuOS00Mi4yLDguNWMtMTIuOSw1LjUtMjQuNSwxMy4zLTM0LjUsMjMuMmMtMTAsMTAtMTcuOCwyMS42LTIzLjIsMzQuNWMtMS4zLDMtMi40LDUuOS0zLjMsOWMtMC45LDIuOCwxLjIsNS43LDQuMSw1LjdsMCwwYzEuOSwwLDMuNS0xLjIsNC4xLTNDNDUuOSw1Ny4zLDgzLjYsMjguMiwxMjgsMjguMnoiIGZpbGw9IiMwMDAwMDAiLz48cGF0aCBkPSJNMjI4LjksMTA3LjZsLTI5LjYtMTEuMWMtMi4yLTAuOC0zLjQtMy4zLTIuNS01LjZsMCwwYzAuOC0yLjIsMy4zLTMuNCw1LjYtMi41bDI5LjYsMTEuMWMyLjIsMC44LDMuNCwzLjMsMi41LDUuNmwwLDBDMjMzLjYsMTA3LjMsMjMxLjEsMTA4LjQsMjI4LjksMTA3LjZ6IiBmaWxsPSIjMDAwMDAwIi8+PHBhdGggZD0iTTIyOS4xLDEwNy4yTDIyOS4xLDEwNy4yYy0yLjItMC44LTMuNC0zLjMtMi41LTUuNmwxMS4xLTI5LjZjMC44LTIuMiwzLjMtMy40LDUuNi0yLjVsMCwwYzIuMiwwLjgsMy40LDMuMywyLjUsNS42bC0xMSwyOS42QzIzMy44LDEwNi45LDIzMS4zLDEwOC4xLDIyOS4xLDEwNy4yeiIgZmlsbD0iIzAwMDAwMCIvPjxwYXRoIGQ9Ik01My43LDE2Ny4ybC0yOS42LTExYy0yLjItMC44LTMuNC0zLjMtMi42LTUuNmwwLDBjMC44LTIuMiwzLjMtMy40LDUuNi0yLjZsMjkuNiwxMWMyLjIsMC44LDMuNCwzLjMsMi42LDUuNmwwLDBDNTguNCwxNjYuOSw1NS45LDE2OCw1My43LDE2Ny4yeiIgZmlsbD0iIzAwMDAwMCIvPjxwYXRoIGQ9Ik0xMi44LDE4Ni4yTDEyLjgsMTg2LjJjLTIuMi0wLjgtMy40LTMuMy0yLjYtNS42bDExLTI5LjZjMC44LTIuMiwzLjMtMy40LDUuNi0yLjZsMCwwYzIuMiwwLjgsMy40LDMuMywyLjYsNS42bC0xMSwyOS42QzE3LjYsMTg1LjksMTUuMSwxODcsMTIuOCwxODYuMnoiIGZpbGw9IiMwMDAwMDAiLz48L2c+PC9nPiYjeGE7PC9zdmc+;imageBackground=none;shadow=1;fontColor=light-dark(#000000,#000066);labelBorderColor=light-dark(default, #bb2525);imageBorder=none;backgroundOutline=0;shadowColor=light-dark(#FFFF00,#FFFFCC);fontFamily=Roboto;fontSource=https%3A%2F%2Ffonts.googleapis.com%2Fcss%3Ffamily%3DRoboto;" vertex="1" parent="uTlLhdyHh0Ulww6TSe8G-21">
          <mxGeometry width="235.31709090909092" height="216.36363636363635" as="geometry" />
        </mxCell>
        <mxCell id="uTlLhdyHh0Ulww6TSe8G-23" value="&lt;b style=&quot;font-family: &amp;quot;Playwrite DK Loopet&amp;quot;;&quot;&gt;&lt;font style=&quot;color: rgb(0, 0, 0);&quot;&gt;Event Loop&lt;/font&gt;&lt;/b&gt;" style="text;html=1;align=center;verticalAlign=middle;whiteSpace=wrap;rounded=0;fontFamily=Roboto;fontSource=https%3A%2F%2Ffonts.googleapis.com%2Fcss%3Ffamily%3DRoboto;glass=0;shadow=1;fillColor=none;shadowColor=#FFFF00;fontSize=33;" vertex="1" parent="uTlLhdyHh0Ulww6TSe8G-21">
          <mxGeometry x="-23.98449233786934" width="283.2916513424053" height="204" as="geometry" />
        </mxCell>
        <mxCell id="uTlLhdyHh0Ulww6TSe8G-27" value="&lt;font data-font-src=&quot;https://fonts.googleapis.com/css?family=Playwrite+DK+Loopet&quot; face=&quot;Playwrite DK Loopet&quot;&gt;Single Thread&lt;/font&gt;" style="text;html=1;align=center;verticalAlign=middle;whiteSpace=wrap;rounded=0;" vertex="1" parent="uTlLhdyHh0Ulww6TSe8G-21">
          <mxGeometry x="71.49" y="120" width="92.34" height="30" as="geometry" />
        </mxCell>
      </root>
    </mxGraphModel>
  </diagram>
</mxfile>
